<?xml version="1.0" encoding="UTF-8" standalone="no"?><!DOCTYPE svg PUBLIC "-//W3C//DTD SVG 1.1//EN" "http://www.w3.org/Graphics/SVG/1.1/DTD/svg11.dtd"><!-- Generated by graphviz version 2.40.1 (20161225.0304)
 --><!-- Title: AFN Pages: 1 --><svg xmlns="http://www.w3.org/2000/svg" xmlns:xlink="http://www.w3.org/1999/xlink" width="576pt" height="96pt" viewBox="0.00 0.00 576.00 95.67">
<g id="graph0" class="graph" transform="scale(.2735 .2735) rotate(0) translate(4 345.8)">
<title>AFN</title>
<polygon fill="#ffffff" stroke="transparent" points="-4,4 -4,-345.8 2101.9975,-345.8 2101.9975,4 -4,4"/>
<!-- $4.00 -->
<g id="node1" class="node">
<title>$4.00</title>
<ellipse fill="none" stroke="#000000" cx="2061.2329" cy="-84" rx="32.5562" ry="32.5562"/>
<ellipse fill="none" stroke="#000000" cx="2061.2329" cy="-84" rx="36.5308" ry="36.5308"/>
<text text-anchor="middle" x="2061.2329" y="-79.8" font-family="Times,serif" font-size="14.00" fill="#000000">$4.00</text>
</g>
<!-- $4.25 -->
<g id="node2" class="node">
<title>$4.25</title>
<ellipse fill="none" stroke="#000000" cx="2061.2329" cy="-305" rx="32.5562" ry="32.5562"/>
<ellipse fill="none" stroke="#000000" cx="2061.2329" cy="-305" rx="36.5308" ry="36.5308"/>
<text text-anchor="middle" x="2061.2329" y="-300.8" font-family="Times,serif" font-size="14.00" fill="#000000">$4.25</text>
</g>
<!-- $4.50 -->
<g id="node3" class="node">
<title>$4.50</title>
<ellipse fill="none" stroke="#000000" cx="1927.2036" cy="-156" rx="32.5562" ry="32.5562"/>
<ellipse fill="none" stroke="#000000" cx="1927.2036" cy="-156" rx="36.5308" ry="36.5308"/>
<text text-anchor="middle" x="1927.2036" y="-151.8" font-family="Times,serif" font-size="14.00" fill="#000000">$4.50</text>
</g>
<!-- $4.75 -->
<g id="node4" class="node">
<title>$4.75</title>
<ellipse fill="none" stroke="#000000" cx="2061.2329" cy="-213" rx="32.5562" ry="32.5562"/>
<ellipse fill="none" stroke="#000000" cx="2061.2329" cy="-213" rx="36.5308" ry="36.5308"/>
<text text-anchor="middle" x="2061.2329" y="-208.8" font-family="Times,serif" font-size="14.00" fill="#000000">$4.75</text>
</g>
<!-- $0.00 -->
<g id="node5" class="node">
<title>$0.00</title>
<ellipse fill="none" stroke="#000000" cx="32.7646" cy="-159" rx="32.5309" ry="32.5309"/>
<text text-anchor="middle" x="32.7646" y="-154.8" font-family="Times,serif" font-size="14.00" fill="#000000">$0.00</text>
</g>
<!-- $0.25 -->
<g id="node6" class="node">
<title>$0.25</title>
<ellipse fill="none" stroke="#000000" cx="158.7939" cy="-222" rx="32.5309" ry="32.5309"/>
<text text-anchor="middle" x="158.7939" y="-217.8" font-family="Times,serif" font-size="14.00" fill="#000000">$0.25</text>
</g>
<!-- $0.00&#45;&gt;$0.25 -->
<g id="edge1" class="edge">
<title>$0.00-&gt;$0.25</title>
<path fill="none" stroke="#000000" d="M62.3129,-173.7707C79.6155,-182.42 101.6603,-193.4398 120.3088,-202.7619"/>
<polygon fill="#000000" stroke="#000000" points="118.9211,-205.9811 129.4308,-207.3218 122.051,-199.7198 118.9211,-205.9811"/>
<text text-anchor="middle" x="95.7793" y="-201.2" font-family="Times,serif" font-size="14.00" fill="#000000">0.25</text>
</g>
<!-- $0.50 -->
<g id="node7" class="node">
<title>$0.50</title>
<ellipse fill="none" stroke="#000000" cx="284.8232" cy="-90" rx="32.5309" ry="32.5309"/>
<text text-anchor="middle" x="284.8232" y="-85.8" font-family="Times,serif" font-size="14.00" fill="#000000">$0.50</text>
</g>
<!-- $0.00&#45;&gt;$0.50 -->
<g id="edge2" class="edge">
<title>$0.00-&gt;$0.50</title>
<path fill="none" stroke="#000000" d="M64.0779,-147.9392C82.086,-141.7596 105.202,-134.1331 126.0293,-128.2 165.2772,-117.0193 210.5848,-106.3363 242.7334,-99.1253"/>
<polygon fill="#000000" stroke="#000000" points="243.6841,-102.4994 252.6845,-96.9098 242.1629,-95.6667 243.6841,-102.4994"/>
<text text-anchor="middle" x="158.7939" y="-133.2" font-family="Times,serif" font-size="14.00" fill="#000000">0.50</text>
</g>
<!-- $1.00 -->
<g id="node8" class="node">
<title>$1.00</title>
<ellipse fill="none" stroke="#000000" cx="536.8817" cy="-147" rx="32.5309" ry="32.5309"/>
<text text-anchor="middle" x="536.8817" y="-142.8" font-family="Times,serif" font-size="14.00" fill="#000000">$1.00</text>
</g>
<!-- $0.00&#45;&gt;$1.00 -->
<g id="edge3" class="edge">
<title>$0.00-&gt;$1.00</title>
<path fill="none" stroke="#000000" d="M65.6691,-159C91.0989,-159 127.1772,-159 158.7939,-159 158.7939,-159 158.7939,-159 410.8524,-159 438.7383,-159 469.9393,-156.0525 494.32,-153.0791"/>
<polygon fill="#000000" stroke="#000000" points="494.8411,-156.5411 504.3217,-151.8117 493.9611,-149.5967 494.8411,-156.5411"/>
<text text-anchor="middle" x="284.8232" y="-163.2" font-family="Times,serif" font-size="14.00" fill="#000000">1.00</text>
</g>
<!-- $0.25&#45;&gt;$0.50 -->
<g id="edge4" class="edge">
<title>$0.25-&gt;$0.50</title>
<path fill="none" stroke="#000000" d="M181.6168,-198.0958C202.227,-176.5092 232.6821,-144.6113 255.1709,-121.057"/>
<polygon fill="#000000" stroke="#000000" points="257.7959,-123.3761 262.17,-113.7264 252.7329,-118.5422 257.7959,-123.3761"/>
<text text-anchor="middle" x="221.8085" y="-172.2" font-family="Times,serif" font-size="14.00" fill="#000000">0.25</text>
</g>
<!-- $0.75 -->
<g id="node9" class="node">
<title>$0.75</title>
<ellipse fill="none" stroke="#000000" cx="410.8524" cy="-224" rx="32.5309" ry="32.5309"/>
<text text-anchor="middle" x="410.8524" y="-219.8" font-family="Times,serif" font-size="14.00" fill="#000000">$0.75</text>
</g>
<!-- $0.25&#45;&gt;$0.75 -->
<g id="edge5" class="edge">
<title>$0.25-&gt;$0.75</title>
<path fill="none" stroke="#000000" d="M191.7462,-222.2615C236.8451,-222.6193 317.872,-223.2622 367.7464,-223.658"/>
<polygon fill="#000000" stroke="#000000" points="367.8646,-227.1589 377.8921,-223.7385 367.9202,-220.1591 367.8646,-227.1589"/>
<text text-anchor="middle" x="284.8232" y="-228.2" font-family="Times,serif" font-size="14.00" fill="#000000">0.50</text>
</g>
<!-- $1.25 -->
<g id="node10" class="node">
<title>$1.25</title>
<ellipse fill="none" stroke="#000000" cx="662.911" cy="-211" rx="32.5309" ry="32.5309"/>
<text text-anchor="middle" x="662.911" y="-206.8" font-family="Times,serif" font-size="14.00" fill="#000000">$1.25</text>
</g>
<!-- $0.25&#45;&gt;$1.25 -->
<g id="edge6" class="edge">
<title>$0.25-&gt;$1.25</title>
<path fill="none" stroke="#000000" d="M176.2116,-249.8733C197.6745,-280.3772 237.2088,-325 284.8232,-325 284.8232,-325 284.8232,-325 536.8817,-325 561.1226,-325 606.1715,-278.0281 635.327,-244.3867"/>
<polygon fill="#000000" stroke="#000000" points="638.1642,-246.4546 642.0137,-236.5838 632.8489,-241.8996 638.1642,-246.4546"/>
<text text-anchor="middle" x="410.8524" y="-329.2" font-family="Times,serif" font-size="14.00" fill="#000000">1.00</text>
</g>
<!-- $0.50&#45;&gt;$1.00 -->
<g id="edge8" class="edge">
<title>$0.50-&gt;$1.00</title>
<path fill="none" stroke="#000000" d="M317.0026,-97.277C362.3226,-107.5256 444.9959,-126.2211 495.0385,-137.5377"/>
<polygon fill="#000000" stroke="#000000" points="494.3681,-140.9744 504.8939,-139.7663 495.9122,-134.1468 494.3681,-140.9744"/>
<text text-anchor="middle" x="410.8524" y="-130.2" font-family="Times,serif" font-size="14.00" fill="#000000">0.50</text>
</g>
<!-- $0.50&#45;&gt;$0.75 -->
<g id="edge7" class="edge">
<title>$0.50-&gt;$0.75</title>
<path fill="none" stroke="#000000" d="M307.3547,-113.9565C327.9264,-135.8294 358.4806,-168.3159 381.0623,-192.3257"/>
<polygon fill="#000000" stroke="#000000" points="378.6904,-194.9126 388.0911,-199.7991 383.7895,-190.1168 378.6904,-194.9126"/>
<text text-anchor="middle" x="347.8378" y="-174.2" font-family="Times,serif" font-size="14.00" fill="#000000">0.25</text>
</g>
<!-- $1.50 -->
<g id="node11" class="node">
<title>$1.50</title>
<ellipse fill="none" stroke="#000000" cx="788.9402" cy="-70" rx="32.5309" ry="32.5309"/>
<text text-anchor="middle" x="788.9402" y="-65.8" font-family="Times,serif" font-size="14.00" fill="#000000">$1.50</text>
</g>
<!-- $0.50&#45;&gt;$1.50 -->
<g id="edge9" class="edge">
<title>$0.50-&gt;$1.50</title>
<path fill="none" stroke="#000000" d="M313.9583,-74.3608C338.935,-62.4196 376.2578,-48 410.8524,-48 410.8524,-48 410.8524,-48 662.911,-48 691.2855,-48 722.7252,-53.4785 747.1051,-58.9678"/>
<polygon fill="#000000" stroke="#000000" points="746.5573,-62.4341 757.0918,-61.305 748.1525,-55.6183 746.5573,-62.4341"/>
<text text-anchor="middle" x="536.8817" y="-52.2" font-family="Times,serif" font-size="14.00" fill="#000000">1.00</text>
</g>
<!-- $1.00&#45;&gt;$1.25 -->
<g id="edge13" class="edge">
<title>$1.00-&gt;$1.25</title>
<path fill="none" stroke="#000000" d="M566.1121,-161.8438C583.4053,-170.6256 605.5181,-181.8548 624.2421,-191.3632"/>
<polygon fill="#000000" stroke="#000000" points="622.9015,-194.6079 633.4025,-196.015 626.071,-188.3665 622.9015,-194.6079"/>
<text text-anchor="middle" x="599.8963" y="-189.2" font-family="Times,serif" font-size="14.00" fill="#000000">0.25</text>
</g>
<!-- $1.00&#45;&gt;$1.50 -->
<g id="edge14" class="edge">
<title>$1.00-&gt;$1.50</title>
<path fill="none" stroke="#000000" d="M566.8775,-133.8089C573.6879,-130.8674 580.9019,-127.7936 587.6463,-125 606.4114,-117.2274 610.7803,-114.3237 630.1463,-108.2 669.0568,-95.8962 714.4064,-85.3529 746.6564,-78.4795"/>
<polygon fill="#000000" stroke="#000000" points="747.5767,-81.8626 756.6422,-76.3792 746.1359,-75.0125 747.5767,-81.8626"/>
<text text-anchor="middle" x="662.911" y="-113.2" font-family="Times,serif" font-size="14.00" fill="#000000">0.50</text>
</g>
<!-- $2.00 -->
<g id="node13" class="node">
<title>$2.00</title>
<ellipse fill="none" stroke="#000000" cx="1040.9988" cy="-121" rx="32.5309" ry="32.5309"/>
<text text-anchor="middle" x="1040.9988" y="-116.8" font-family="Times,serif" font-size="14.00" fill="#000000">$2.00</text>
</g>
<!-- $1.00&#45;&gt;$2.00 -->
<g id="edge15" class="edge">
<title>$1.00-&gt;$2.00</title>
<path fill="none" stroke="#000000" d="M569.9582,-145.2941C658.1956,-140.7432 899.161,-128.3153 997.9146,-123.2221"/>
<polygon fill="#000000" stroke="#000000" points="998.3224,-126.7058 1008.1288,-122.6953 997.9618,-119.7151 998.3224,-126.7058"/>
<text text-anchor="middle" x="788.9402" y="-140.2" font-family="Times,serif" font-size="14.00" fill="#000000">1.00</text>
</g>
<!-- $0.75&#45;&gt;$1.00 -->
<g id="edge10" class="edge">
<title>$0.75-&gt;$1.00</title>
<path fill="none" stroke="#000000" d="M438.8224,-206.9112C456.808,-195.9225 480.3785,-181.5217 499.9028,-169.593"/>
<polygon fill="#000000" stroke="#000000" points="501.8455,-172.5076 508.5541,-164.3073 498.196,-166.5343 501.8455,-172.5076"/>
<text text-anchor="middle" x="473.8671" y="-197.2" font-family="Times,serif" font-size="14.00" fill="#000000">0.25</text>
</g>
<!-- $0.75&#45;&gt;$1.25 -->
<g id="edge11" class="edge">
<title>$0.75-&gt;$1.25</title>
<path fill="none" stroke="#000000" d="M443.8047,-222.3005C488.9036,-219.9745 569.9306,-215.7955 619.805,-213.2232"/>
<polygon fill="#000000" stroke="#000000" points="620.1442,-216.7105 629.9506,-212.6999 619.7836,-209.7197 620.1442,-216.7105"/>
<text text-anchor="middle" x="536.8817" y="-224.2" font-family="Times,serif" font-size="14.00" fill="#000000">0.50</text>
</g>
<!-- $1.75 -->
<g id="node12" class="node">
<title>$1.75</title>
<ellipse fill="none" stroke="#000000" cx="914.9695" cy="-194" rx="32.5309" ry="32.5309"/>
<text text-anchor="middle" x="914.9695" y="-189.8" font-family="Times,serif" font-size="14.00" fill="#000000">$1.75</text>
</g>
<!-- $0.75&#45;&gt;$1.75 -->
<g id="edge12" class="edge">
<title>$0.75-&gt;$1.75</title>
<path fill="none" stroke="#000000" d="M436.0519,-245.3289C460.2698,-263.6057 498.7217,-287 536.8817,-287 536.8817,-287 536.8817,-287 788.9402,-287 829.6014,-287 865.7603,-255.2702 888.8039,-228.8778"/>
<polygon fill="#000000" stroke="#000000" points="891.7589,-230.8025 895.5247,-220.8995 886.4052,-226.2926 891.7589,-230.8025"/>
<text text-anchor="middle" x="662.911" y="-291.2" font-family="Times,serif" font-size="14.00" fill="#000000">1.00</text>
</g>
<!-- $1.25&#45;&gt;$1.50 -->
<g id="edge16" class="edge">
<title>$1.25-&gt;$1.50</title>
<path fill="none" stroke="#000000" d="M684.8636,-186.4397C705.699,-163.1293 737.1425,-127.9506 760.0145,-102.3617"/>
<polygon fill="#000000" stroke="#000000" points="762.7616,-104.5403 766.8163,-94.752 757.5426,-99.8753 762.7616,-104.5403"/>
<text text-anchor="middle" x="725.9256" y="-158.2" font-family="Times,serif" font-size="14.00" fill="#000000">0.25</text>
</g>
<!-- $1.25&#45;&gt;$1.75 -->
<g id="edge17" class="edge">
<title>$1.25-&gt;$1.75</title>
<path fill="none" stroke="#000000" d="M695.6048,-208.795C740.6228,-205.7588 821.7883,-200.2846 871.7662,-196.9138"/>
<polygon fill="#000000" stroke="#000000" points="872.1915,-200.3932 881.9333,-196.2281 871.7204,-193.4091 872.1915,-200.3932"/>
<text text-anchor="middle" x="788.9402" y="-209.2" font-family="Times,serif" font-size="14.00" fill="#000000">0.50</text>
</g>
<!-- $2.25 -->
<g id="node14" class="node">
<title>$2.25</title>
<ellipse fill="none" stroke="#000000" cx="1167.028" cy="-252" rx="32.5309" ry="32.5309"/>
<text text-anchor="middle" x="1167.028" y="-247.8" font-family="Times,serif" font-size="14.00" fill="#000000">$2.25</text>
</g>
<!-- $1.25&#45;&gt;$2.25 -->
<g id="edge18" class="edge">
<title>$1.25-&gt;$2.25</title>
<path fill="none" stroke="#000000" d="M695.0702,-217.7246C701.231,-218.9023 707.6414,-220.0522 713.6756,-221 732.4644,-223.9513 737.2672,-223.9502 756.1756,-226 868.0956,-238.1328 895.8313,-244.7647 1008.2341,-251 1045.3039,-253.0564 1054.6373,-251.7778 1091.7634,-252 1102.1513,-252.0622 1113.3458,-252.0857 1123.8442,-252.0887"/>
<polygon fill="#000000" stroke="#000000" points="1124.0559,-255.5887 1134.0548,-252.0854 1124.0536,-248.5887 1124.0559,-255.5887"/>
<text text-anchor="middle" x="914.9695" y="-251.2" font-family="Times,serif" font-size="14.00" fill="#000000">1.00</text>
</g>
<!-- $1.50&#45;&gt;$1.75 -->
<g id="edge19" class="edge">
<title>$1.50-&gt;$1.75</title>
<path fill="none" stroke="#000000" d="M812.35,-93.0328C832.5599,-112.9173 861.9098,-141.7946 884.0493,-163.5776"/>
<polygon fill="#000000" stroke="#000000" points="881.6745,-166.1511 891.2574,-170.6697 886.5839,-161.1614 881.6745,-166.1511"/>
<text text-anchor="middle" x="851.9549" y="-148.2" font-family="Times,serif" font-size="14.00" fill="#000000">0.25</text>
</g>
<!-- $1.50&#45;&gt;$2.00 -->
<g id="edge20" class="edge">
<title>$1.50-&gt;$2.00</title>
<path fill="none" stroke="#000000" d="M821.5422,-75.093C861.5015,-81.5419 931.1845,-93.4578 990.2341,-107 993.2555,-107.6929 996.3671,-108.4479 999.4919,-109.2363"/>
<polygon fill="#000000" stroke="#000000" points="998.8635,-112.6896 1009.4236,-111.8333 1000.6344,-105.9173 998.8635,-112.6896"/>
<text text-anchor="middle" x="914.9695" y="-102.2" font-family="Times,serif" font-size="14.00" fill="#000000">0.50</text>
</g>
<!-- $2.50 -->
<g id="node15" class="node">
<title>$2.50</title>
<ellipse fill="none" stroke="#000000" cx="1293.0573" cy="-50" rx="32.5309" ry="32.5309"/>
<text text-anchor="middle" x="1293.0573" y="-45.8" font-family="Times,serif" font-size="14.00" fill="#000000">$2.50</text>
</g>
<!-- $1.50&#45;&gt;$2.50 -->
<g id="edge21" class="edge">
<title>$1.50-&gt;$2.50</title>
<path fill="none" stroke="#000000" d="M818.0754,-54.3608C843.0521,-42.4196 880.3749,-28 914.9695,-28 914.9695,-28 914.9695,-28 1167.028,-28 1195.4025,-28 1226.8423,-33.4785 1251.2221,-38.9678"/>
<polygon fill="#000000" stroke="#000000" points="1250.6744,-42.4341 1261.2089,-41.305 1252.2696,-35.6183 1250.6744,-42.4341"/>
<text text-anchor="middle" x="1040.9988" y="-32.2" font-family="Times,serif" font-size="14.00" fill="#000000">1.00</text>
</g>
<!-- $1.75&#45;&gt;$2.00 -->
<g id="edge22" class="edge">
<title>$1.75-&gt;$2.00</title>
<path fill="none" stroke="#000000" d="M940.2578,-172.8857C948.1558,-166.7878 957.0737,-160.386 965.7341,-155.2 976.7009,-148.6329 989.1466,-142.4958 1000.7149,-137.2843"/>
<polygon fill="#000000" stroke="#000000" points="1002.4222,-140.3574 1010.1741,-133.1353 999.6104,-133.947 1002.4222,-140.3574"/>
<text text-anchor="middle" x="977.9841" y="-160.2" font-family="Times,serif" font-size="14.00" fill="#000000">0.25</text>
</g>
<!-- $1.75&#45;&gt;$2.25 -->
<g id="edge23" class="edge">
<title>$1.75-&gt;$2.25</title>
<path fill="none" stroke="#000000" d="M947.1489,-201.4047C992.4689,-211.833 1075.1422,-230.8566 1125.1849,-242.3717"/>
<polygon fill="#000000" stroke="#000000" points="1124.51,-245.8078 1135.0402,-244.6394 1126.0798,-238.986 1124.51,-245.8078"/>
<text text-anchor="middle" x="1040.9988" y="-234.2" font-family="Times,serif" font-size="14.00" fill="#000000">0.50</text>
</g>
<!-- $2.75 -->
<g id="node16" class="node">
<title>$2.75</title>
<ellipse fill="none" stroke="#000000" cx="1419.0866" cy="-188" rx="32.5309" ry="32.5309"/>
<text text-anchor="middle" x="1419.0866" y="-183.8" font-family="Times,serif" font-size="14.00" fill="#000000">$2.75</text>
</g>
<!-- $1.75&#45;&gt;$2.75 -->
<g id="edge24" class="edge">
<title>$1.75-&gt;$2.75</title>
<path fill="none" stroke="#000000" d="M947.7273,-191.2144C985.4022,-188.2555 1049.1272,-184 1104.0134,-184 1104.0134,-184 1104.0134,-184 1293.0573,-184 1320.7359,-184 1351.8165,-184.9757 1376.187,-185.9634"/>
<polygon fill="#000000" stroke="#000000" points="1376.0527,-189.4607 1386.1912,-186.3846 1376.3473,-182.4669 1376.0527,-189.4607"/>
<text text-anchor="middle" x="1167.028" y="-188.2" font-family="Times,serif" font-size="14.00" fill="#000000">1.00</text>
</g>
<!-- $2.00&#45;&gt;$2.25 -->
<g id="edge25" class="edge">
<title>$2.00-&gt;$2.25</title>
<path fill="none" stroke="#000000" d="M1063.7277,-144.6089C1078.6621,-160.1231 1098.6281,-180.8672 1116.2634,-199.2 1122.9964,-206.1993 1130.2303,-213.7218 1137.0671,-220.8323"/>
<polygon fill="#000000" stroke="#000000" points="1134.8334,-223.5591 1144.2872,-228.3421 1139.8795,-218.7076 1134.8334,-223.5591"/>
<text text-anchor="middle" x="1104.0134" y="-204.2" font-family="Times,serif" font-size="14.00" fill="#000000">0.25</text>
</g>
<!-- $2.00&#45;&gt;$2.50 -->
<g id="edge26" class="edge">
<title>$2.00-&gt;$2.50</title>
<path fill="none" stroke="#000000" d="M1071.8283,-109.2664C1089.8768,-102.6218 1113.193,-94.4218 1134.2634,-88.2 1173.4021,-76.6428 1218.7233,-66.0067 1250.9047,-58.9088"/>
<polygon fill="#000000" stroke="#000000" points="1251.8447,-62.2861 1260.8671,-56.732 1250.3504,-55.4474 1251.8447,-62.2861"/>
<text text-anchor="middle" x="1167.028" y="-93.2" font-family="Times,serif" font-size="14.00" fill="#000000">0.50</text>
</g>
<!-- $3.00 -->
<g id="node17" class="node">
<title>$3.00</title>
<ellipse fill="none" stroke="#000000" cx="1545.1158" cy="-119" rx="32.5309" ry="32.5309"/>
<text text-anchor="middle" x="1545.1158" y="-114.8" font-family="Times,serif" font-size="14.00" fill="#000000">$3.00</text>
</g>
<!-- $2.00&#45;&gt;$3.00 -->
<g id="edge27" class="edge">
<title>$2.00-&gt;$3.00</title>
<path fill="none" stroke="#000000" d="M1073.901,-120.1923C1099.3296,-119.6372 1135.4073,-119 1167.028,-119 1167.028,-119 1167.028,-119 1419.0866,-119 1446.7512,-119 1477.8317,-119 1502.2055,-119"/>
<polygon fill="#000000" stroke="#000000" points="1502.2114,-122.5001 1512.2114,-119 1502.2113,-115.5001 1502.2114,-122.5001"/>
<text text-anchor="middle" x="1293.0573" y="-123.2" font-family="Times,serif" font-size="14.00" fill="#000000">1.00</text>
</g>
<!-- $2.25&#45;&gt;$2.50 -->
<g id="edge28" class="edge">
<title>$2.25-&gt;$2.50</title>
<path fill="none" stroke="#000000" d="M1186.5466,-224.9665C1191.0226,-218.506 1195.6734,-211.5746 1199.7927,-205 1229.0041,-158.377 1231.0812,-143.623 1260.2927,-97 1262.6741,-93.1991 1265.2332,-89.2789 1267.8335,-85.3994"/>
<polygon fill="#000000" stroke="#000000" points="1270.7961,-87.2672 1273.5387,-77.0335 1265.0129,-83.3233 1270.7961,-87.2672"/>
<text text-anchor="middle" x="1230.0427" y="-178.2" font-family="Times,serif" font-size="14.00" fill="#000000">0.25</text>
</g>
<!-- $2.25&#45;&gt;$2.75 -->
<g id="edge29" class="edge">
<title>$2.25-&gt;$2.75</title>
<path fill="none" stroke="#000000" d="M1198.9514,-243.8944C1244.1871,-232.4086 1327.0024,-211.381 1377.1491,-198.6483"/>
<polygon fill="#000000" stroke="#000000" points="1378.1942,-201.9941 1387.0253,-196.1407 1376.4714,-195.2094 1378.1942,-201.9941"/>
<text text-anchor="middle" x="1293.0573" y="-232.2" font-family="Times,serif" font-size="14.00" fill="#000000">0.50</text>
</g>
<!-- $3.25 -->
<g id="node18" class="node">
<title>$3.25</title>
<ellipse fill="none" stroke="#000000" cx="1671.1451" cy="-259" rx="32.5309" ry="32.5309"/>
<text text-anchor="middle" x="1671.1451" y="-254.8" font-family="Times,serif" font-size="14.00" fill="#000000">$3.25</text>
</g>
<!-- $2.25&#45;&gt;$3.25 -->
<g id="edge30" class="edge">
<title>$2.25-&gt;$3.25</title>
<path fill="none" stroke="#000000" d="M1196.1632,-267.6392C1221.1399,-279.5804 1258.4627,-294 1293.0573,-294 1293.0573,-294 1293.0573,-294 1545.1158,-294 1574.754,-294 1606.9299,-284.9024 1631.3521,-275.9838"/>
<polygon fill="#000000" stroke="#000000" points="1632.8699,-279.1514 1640.9782,-272.3318 1630.3869,-272.6066 1632.8699,-279.1514"/>
<text text-anchor="middle" x="1419.0866" y="-298.2" font-family="Times,serif" font-size="14.00" fill="#000000">1.00</text>
</g>
<!-- $2.50&#45;&gt;$2.75 -->
<g id="edge31" class="edge">
<title>$2.50-&gt;$2.75</title>
<path fill="none" stroke="#000000" d="M1315.2987,-74.354C1336.0477,-97.0738 1367.1326,-131.1113 1389.8744,-156.0131"/>
<polygon fill="#000000" stroke="#000000" points="1387.3156,-158.4015 1396.6436,-163.4253 1392.4845,-153.681 1387.3156,-158.4015"/>
<text text-anchor="middle" x="1356.0719" y="-136.2" font-family="Times,serif" font-size="14.00" fill="#000000">0.25</text>
</g>
<!-- $2.50&#45;&gt;$3.00 -->
<g id="edge32" class="edge">
<title>$2.50-&gt;$3.00</title>
<path fill="none" stroke="#000000" d="M1325.196,-56.9098C1357.4178,-64.0298 1408.3557,-75.8093 1451.8512,-88.2 1469.0988,-93.1134 1487.9159,-99.1881 1504.102,-104.6406"/>
<polygon fill="#000000" stroke="#000000" points="1503.2081,-108.0334 1513.8025,-107.9392 1505.4617,-101.4061 1503.2081,-108.0334"/>
<text text-anchor="middle" x="1419.0866" y="-93.2" font-family="Times,serif" font-size="14.00" fill="#000000">0.50</text>
</g>
<!-- $3.50 -->
<g id="node19" class="node">
<title>$3.50</title>
<ellipse fill="none" stroke="#000000" cx="1797.1744" cy="-119" rx="32.5309" ry="32.5309"/>
<text text-anchor="middle" x="1797.1744" y="-114.8" font-family="Times,serif" font-size="14.00" fill="#000000">$3.50</text>
</g>
<!-- $2.50&#45;&gt;$3.50 -->
<g id="edge33" class="edge">
<title>$2.50-&gt;$3.50</title>
<path fill="none" stroke="#000000" d="M1320.8417,-31.9489C1345.5855,-17.627 1383.3071,0 1419.0866,0 1419.0866,0 1419.0866,0 1671.1451,0 1718.9347,0 1755.9318,-45.7947 1777.1358,-80.5669"/>
<polygon fill="#000000" stroke="#000000" points="1774.3524,-82.7383 1782.4384,-89.5843 1780.3864,-79.19 1774.3524,-82.7383"/>
<text text-anchor="middle" x="1545.1158" y="-4.2" font-family="Times,serif" font-size="14.00" fill="#000000">1.00</text>
</g>
<!-- $2.75&#45;&gt;$3.00 -->
<g id="edge34" class="edge">
<title>$2.75-&gt;$3.00</title>
<path fill="none" stroke="#000000" d="M1448.0002,-172.17C1465.6119,-162.5278 1488.3091,-150.1013 1507.3318,-139.6864"/>
<polygon fill="#000000" stroke="#000000" points="1509.2461,-142.6287 1516.3367,-134.7563 1505.8845,-136.4887 1509.2461,-142.6287"/>
<text text-anchor="middle" x="1482.1012" y="-164.2" font-family="Times,serif" font-size="14.00" fill="#000000">0.25</text>
</g>
<!-- $2.75&#45;&gt;$3.25 -->
<g id="edge35" class="edge">
<title>$2.75-&gt;$3.25</title>
<path fill="none" stroke="#000000" d="M1450.1329,-198.7306C1456.6249,-200.8804 1463.4437,-203.0697 1469.8512,-205 1524.6246,-221.5013 1588.5192,-238.2169 1629.3776,-248.5883"/>
<polygon fill="#000000" stroke="#000000" points="1628.6966,-252.0262 1639.2495,-251.0844 1630.4126,-245.2398 1628.6966,-252.0262"/>
<text text-anchor="middle" x="1545.1158" y="-239.2" font-family="Times,serif" font-size="14.00" fill="#000000">0.50</text>
</g>
<!-- $3.75 -->
<g id="node20" class="node">
<title>$3.75</title>
<ellipse fill="none" stroke="#000000" cx="1927.2036" cy="-244" rx="32.5309" ry="32.5309"/>
<text text-anchor="middle" x="1927.2036" y="-239.8" font-family="Times,serif" font-size="14.00" fill="#000000">$3.75</text>
</g>
<!-- $2.75&#45;&gt;$3.75 -->
<g id="edge36" class="edge">
<title>$2.75-&gt;$3.75</title>
<path fill="none" stroke="#000000" d="M1451.9859,-189.2116C1477.4131,-190.0442 1513.4902,-191 1545.1158,-191 1545.1158,-191 1545.1158,-191 1797.1744,-191 1830.61,-191 1865.5426,-206.2134 1890.7706,-220.3386"/>
<polygon fill="#000000" stroke="#000000" points="1889.199,-223.4732 1899.6052,-225.4632 1892.7113,-217.4181 1889.199,-223.4732"/>
<text text-anchor="middle" x="1671.1451" y="-195.2" font-family="Times,serif" font-size="14.00" fill="#000000">1.00</text>
</g>
<!-- $3.00&#45;&gt;$4.00 -->
<g id="edge39" class="edge">
<title>$3.00-&gt;$4.00</title>
<path fill="none" stroke="#000000" d="M1567.0015,-93.8151C1590.2184,-70.0374 1629.2699,-38 1671.1451,-38 1671.1451,-38 1671.1451,-38 1927.2036,-38 1959.5216,-38 1993.9649,-50.113 2019.842,-61.9074"/>
<polygon fill="#000000" stroke="#000000" points="2018.4311,-65.1117 2028.9684,-66.2152 2021.4192,-58.7814 2018.4311,-65.1117"/>
<text text-anchor="middle" x="1797.1744" y="-42.2" font-family="Times,serif" font-size="14.00" fill="#000000">1.00</text>
</g>
<!-- $3.00&#45;&gt;$3.25 -->
<g id="edge37" class="edge">
<title>$3.00-&gt;$3.25</title>
<path fill="none" stroke="#000000" d="M1567.0685,-143.3861C1587.9039,-166.5312 1619.3474,-201.4604 1642.2194,-226.8678"/>
<polygon fill="#000000" stroke="#000000" points="1639.7294,-229.3331 1649.0212,-234.4236 1644.9319,-224.6497 1639.7294,-229.3331"/>
<text text-anchor="middle" x="1608.1305" y="-206.2" font-family="Times,serif" font-size="14.00" fill="#000000">0.25</text>
</g>
<!-- $3.00&#45;&gt;$3.50 -->
<g id="edge38" class="edge">
<title>$3.00-&gt;$3.50</title>
<path fill="none" stroke="#000000" d="M1578.0681,-119C1623.167,-119 1704.194,-119 1754.0684,-119"/>
<polygon fill="#000000" stroke="#000000" points="1754.2141,-122.5001 1764.214,-119 1754.214,-115.5001 1754.2141,-122.5001"/>
<text text-anchor="middle" x="1671.1451" y="-123.2" font-family="Times,serif" font-size="14.00" fill="#000000">0.50</text>
</g>
<!-- $3.25&#45;&gt;$4.25 -->
<g id="edge42" class="edge">
<title>$3.25-&gt;$4.25</title>
<path fill="none" stroke="#000000" d="M1703.2811,-266.4519C1709.4441,-267.7423 1715.8611,-268.9913 1721.9097,-270 1740.6698,-273.1286 1745.5033,-272.9326 1764.4097,-275 1852.5663,-284.64 1955.5777,-294.8049 2014.1382,-300.4803"/>
<polygon fill="#000000" stroke="#000000" points="2013.9023,-303.9737 2024.1928,-301.453 2014.5763,-297.0063 2013.9023,-303.9737"/>
<text text-anchor="middle" x="1860.189" y="-291.2" font-family="Times,serif" font-size="14.00" fill="#000000">1.00</text>
</g>
<!-- $3.25&#45;&gt;$3.50 -->
<g id="edge40" class="edge">
<title>$3.25-&gt;$3.50</title>
<path fill="none" stroke="#000000" d="M1693.0977,-234.6139C1713.9331,-211.4688 1745.3767,-176.5396 1768.2487,-151.1322"/>
<polygon fill="#000000" stroke="#000000" points="1770.9612,-153.3503 1775.0505,-143.5764 1765.7586,-148.6669 1770.9612,-153.3503"/>
<text text-anchor="middle" x="1734.1597" y="-206.2" font-family="Times,serif" font-size="14.00" fill="#000000">0.25</text>
</g>
<!-- $3.25&#45;&gt;$3.75 -->
<g id="edge41" class="edge">
<title>$3.25-&gt;$3.75</title>
<path fill="none" stroke="#000000" d="M1704.0961,-257.0697C1750.0937,-254.3752 1833.6018,-249.4832 1884.3745,-246.5089"/>
<polygon fill="#000000" stroke="#000000" points="1884.601,-250.0018 1894.3791,-245.9229 1884.1915,-243.0138 1884.601,-250.0018"/>
<text text-anchor="middle" x="1797.1744" y="-258.2" font-family="Times,serif" font-size="14.00" fill="#000000">0.50</text>
</g>
<!-- $3.50&#45;&gt;$4.00 -->
<g id="edge44" class="edge">
<title>$3.50-&gt;$4.00</title>
<path fill="none" stroke="#000000" d="M1828.3126,-108.5679C1846.2642,-103.0146 1869.382,-96.6381 1890.439,-93.2 1931.8712,-86.4351 1979.6299,-84.3362 2014.0917,-83.8129"/>
<polygon fill="#000000" stroke="#000000" points="2014.3781,-87.31 2024.3381,-83.6976 2014.2993,-80.3104 2014.3781,-87.31"/>
<text text-anchor="middle" x="1927.2036" y="-98.2" font-family="Times,serif" font-size="14.00" fill="#000000">0.50</text>
</g>
<!-- $3.50&#45;&gt;$4.50 -->
<g id="edge45" class="edge">
<title>$3.50-&gt;$4.50</title>
<path fill="none" stroke="#000000" d="M1830.0247,-115.5917C1843.441,-115.2034 1858.9449,-116.0633 1872.439,-120.2 1878.2136,-121.9702 1883.9519,-124.5495 1889.42,-127.5254"/>
<polygon fill="#000000" stroke="#000000" points="1887.9442,-130.7204 1898.3258,-132.8352 1891.5289,-124.7079 1887.9442,-130.7204"/>
<text text-anchor="middle" x="1860.189" y="-125.2" font-family="Times,serif" font-size="14.00" fill="#000000">1.00</text>
</g>
<!-- $3.50&#45;&gt;$3.75 -->
<g id="edge43" class="edge">
<title>$3.50-&gt;$3.75</title>
<path fill="none" stroke="#000000" d="M1828.144,-130.3346C1843.1187,-137.0997 1860.4083,-146.9787 1872.439,-160.2 1886.0522,-175.1604 1879.6463,-184.8929 1890.439,-202 1892.5881,-205.4064 1895.0084,-208.8138 1897.5552,-212.132"/>
<polygon fill="#000000" stroke="#000000" points="1895.0427,-214.5901 1904.0642,-220.1455 1900.4761,-210.1767 1895.0427,-214.5901"/>
<text text-anchor="middle" x="1860.189" y="-165.2" font-family="Times,serif" font-size="14.00" fill="#000000">0.25</text>
</g>
<!-- $3.75&#45;&gt;$4.00 -->
<g id="edge46" class="edge">
<title>$3.75-&gt;$4.00</title>
<path fill="none" stroke="#000000" d="M1949.0995,-219.232C1954.0228,-213.5949 1959.2001,-207.613 1963.9683,-202 1986.8775,-175.0318 2012.2972,-144.1589 2031.4033,-120.7575"/>
<polygon fill="#000000" stroke="#000000" points="2034.2764,-122.7724 2037.8835,-112.8104 2028.8514,-118.3486 2034.2764,-122.7724"/>
<text text-anchor="middle" x="1994.2183" y="-184.2" font-family="Times,serif" font-size="14.00" fill="#000000">0.25</text>
</g>
<!-- $3.75&#45;&gt;$4.25 -->
<g id="edge47" class="edge">
<title>$3.75-&gt;$4.25</title>
<path fill="none" stroke="#000000" d="M1958.5142,-254.7144C1973.2747,-260.072 1990.9997,-266.9522 2006.4683,-274.2 2011.1031,-276.3716 2015.8787,-278.7819 2020.5878,-281.2704"/>
<polygon fill="#000000" stroke="#000000" points="2019.0484,-284.4171 2029.5071,-286.1101 2022.3869,-278.2645 2019.0484,-284.4171"/>
<text text-anchor="middle" x="1994.2183" y="-279.2" font-family="Times,serif" font-size="14.00" fill="#000000">0.50</text>
</g>
<!-- $3.75&#45;&gt;$4.75 -->
<g id="edge48" class="edge">
<title>$3.75-&gt;$4.75</title>
<path fill="none" stroke="#000000" d="M1957.8485,-231.6619C1965.6202,-228.8832 1974.021,-226.1756 1981.9683,-224.2 1992.3936,-221.6084 2003.7497,-219.5607 2014.5241,-217.9648"/>
<polygon fill="#000000" stroke="#000000" points="2015.1991,-221.4049 2024.6264,-216.5701 2014.2417,-214.4707 2015.1991,-221.4049"/>
<text text-anchor="middle" x="1994.2183" y="-229.2" font-family="Times,serif" font-size="14.00" fill="#000000">1.00</text>
</g>
</g>
</svg>